<?xml version="1.0" encoding="UTF-8"?>
<svg xmlns="http://www.w3.org/2000/svg" version="1.1" xmlns:cc="http://creativecommons.org/ns#" xmlns:dc="http://purl.org/dc/elements/1.1/" xmlns:inkscape="http://www.inkscape.org/namespaces/inkscape" xmlns:rdf="http://www.w3.org/1999/02/22-rdf-syntax-ns#" xmlns:sodipodi="http://sodipodi.sourceforge.net/DTD/sodipodi-0.dtd" xmlns:svg="http://www.w3.org/2000/svg" viewBox="0 0 64 64">
  <defs>
    <style>
      .cls-1 {
        fill: #fff;
      }

      .cls-2 {
        fill: #7dff00;
      }
    </style>
  </defs>
  <!-- Generator: Adobe Illustrator 28.7.1, SVG Export Plug-In . SVG Version: 1.2.0 Build 142)  -->
  <g>
    <g id="svg4160" inkscape:version="1.0.2 (e86c870879, 2021-01-15, custom)">
      <sodipodi:namedview id="namedview8" bordercolor="#666666" borderopacity="1" gridtolerance="10" guidetolerance="10" inkscape:bbox-nodes="true" inkscape:bbox-paths="true" inkscape:current-layer="layer2" inkscape:cx="27.157851" inkscape:cy="34.186983" inkscape:document-rotation="0" inkscape:pagecheckerboard="true" inkscape:pageopacity="0" inkscape:pageshadow="2" inkscape:snap-bbox="true" inkscape:snap-bbox-edge-midpoints="true" inkscape:snap-bbox-midpoints="true" inkscape:window-height="837" inkscape:window-maximized="1" inkscape:window-width="1600" inkscape:window-x="-8" inkscape:window-y="-8" inkscape:zoom="9.453125" objecttolerance="10" pagecolor="#ffffff" showgrid="false">
        <inkscape:grid id="grid832" type="xygrid"/>
      </sodipodi:namedview>
      <g id="Calque_1">
        <g>
          <g>
            <path class="cls-1" d="M8.2,63.3l-3.1-7.9h2.1l2,5.8,2-5.8h2.1l-3.1,7.9h-2.1,0Z"/>
            <path class="cls-1" d="M22.1,59.3c0,2.3-1.8,4.1-4.3,4.1s-4.3-1.7-4.3-4.1,1.8-4,4.3-4,4.3,1.7,4.3,4ZM15.7,59.3c0,1.3,1,2.4,2.2,2.4s2.2-1,2.2-2.4-1-2.3-2.2-2.3-2.2,1-2.2,2.3h0Z"/>
            <path class="cls-1" d="M28.6,61.6v1.7h-5.4v-7.9h2v6.2h3.4Z"/>
            <path class="cls-1" d="M36.7,60c0,2.1-1.4,3.4-3.6,3.4s-3.7-1.3-3.7-3.4v-4.6h2v4.6c0,1.1.7,1.7,1.6,1.7s1.6-.7,1.6-1.7v-4.6h2v4.6h0Z"/>
            <path class="cls-1" d="M45,63.3v-5.1s-1.9,4.4-1.9,4.4h-1.3l-1.9-4.4v5.1h-1.8v-7.9h2.2l2.1,4.7,2.1-4.7h2.2v7.9h-1.8,0Z"/>
            <path class="cls-1" d="M48.4,63.3v-7.9h2v7.9h-2Z"/>
            <path class="cls-1" d="M58.9,56.7l-1.2,1.4c-.5-.6-1.3-1-2-1-1.3,0-2.2,1-2.2,2.3s.9,2.3,2.2,2.3,1.4-.4,2-.9l1.2,1.2c-.9.9-2.1,1.4-3.3,1.4-2.4,0-4.2-1.8-4.2-4.1s1.8-4,4.2-4,2.4.5,3.2,1.3h0Z"/>
          </g>
          <g>
            <path d="M32,52c-6.9,0-13.3-2.7-18.2-7.5s-7.5-11.3-7.5-18.2,2.7-13.3,7.5-18.2C18.7,3.3,25.1.6,32,.6s13.3,2.7,18.2,7.5c4.9,4.9,7.5,11.3,7.5,18.2s-2.7,13.3-7.5,18.2-11.3,7.5-18.2,7.5Z"/>
            <path class="cls-2" d="M32,50.7c-13.5,0-24.4-11-24.4-24.4S18.5,1.9,32,1.9s24.4,11,24.4,24.4-11,24.4-24.4,24.4h0ZM32,4c-12.3,0-22.3,10-22.3,22.3s10,22.3,22.3,22.3,22.3-10,22.3-22.3S44.3,4,32,4Z"/>
            <polygon class="cls-2" points="36.1 42.5 32.1 42.5 41.5 14.4 45.6 14.4 36.1 42.5"/>
            <polygon class="cls-2" points="33.2 38.3 31.1 32.3 37.2 14.4 41.2 14.4 33.2 38.3"/>
            <polygon class="cls-2" points="28.4 31.9 30.4 26.3 26.5 14.4 22.5 14.4 28.4 31.9"/>
            <polygon class="cls-2" points="27.6 42.5 31.7 42.5 22.2 14.4 18.1 14.4 27.6 42.5"/>
          </g>
        </g>
      </g>
    </g>
  </g>
</svg>