<?xml version="1.0" encoding="UTF-8"?>
<svg xmlns="http://www.w3.org/2000/svg" version="1.1" xmlns:inkscape="http://www.inkscape.org/namespaces/inkscape" xmlns:sodipodi="http://sodipodi.sourceforge.net/DTD/sodipodi-0.dtd" xmlns:svg="http://www.w3.org/2000/svg" viewBox="0 0 24 24">
  <!-- Generator: Adobe Illustrator 30.2.1, SVG Export Plug-In . SVG Version: 2.1.1 Build 1)  -->
  <defs>
    <style>
      .st0 {
        fill: #c7c7c5;
      }
    </style>
  </defs>
  <g id="svg827" inkscape:version="1.1 (c4e8f9ed74, 2021-05-24)" sodipodi:docname="settings.svg">
    <sodipodi:namedview id="namedview829" bordercolor="#ffffff" borderopacity="1" inkscape:current-layer="svg827" inkscape:cx="-0.38461538" inkscape:cy="12.019231" inkscape:pagecheckerboard="1" inkscape:pageopacity="0" inkscape:pageshadow="0" inkscape:window-height="826" inkscape:window-maximized="1" inkscape:window-width="1600" inkscape:window-x="0" inkscape:window-y="0" inkscape:zoom="26" pagecolor="#505050" showgrid="false"/>
    <g>
      <path class="st0" d="M22.1,19.6v3.4h-3.4c-.2-.1-.3-.3-.3-.6v-2.6c0-.7,1-.4,1.4-.5v-1.8s-7.4,0-7.4,0v1.8c.3,0,1.4-.2,1.4.4v2.9c0,.1-.2.2-.2.3h-3.2c0-.1-.2-.2-.2-.3v-2.9c0-.2.2-.5.4-.5h1s0-1.8,0-1.8h-7.3s0,1.8,0,1.8c.4.1,1.4-.2,1.4.5v2.7c0,.3,0,.4-.3.6H1.9v-3.4c0,0,.2-.2.3-.2h1.1s0-2.3,0-2.3c0-.3.2-.4.5-.4h7.8s0-1,0-1c-1.2-.5-2-2.1-2.3-3.4h5.7c-.3,1.3-1.1,3.1-2.5,3.4v.9s7.8,0,7.8,0c.3,0,.5.2.5.4v2.3c.6.1,1-.2,1.4.3Z"/>
      <path class="st0" d="M12.5,1c.6.2,1,.6,1.4,1.1.5.7.8,1.5,1,2.3h-5.7c.2-1,.6-1.8,1.2-2.5.4-.5.8-.7,1.3-.9h.8Z"/>
      <path class="st0" d="M15.2,11.3h-6.1c-.2-.8-.3-1.7-.3-2.5h6.6c0,.9,0,1.7-.2,2.5Z"/>
      <path class="st0" d="M15.4,7.8h-6.7c0-.9,0-1.7.2-2.5h6.1c.2.8.2,1.6.3,2.5Z"/>
      <path class="st0" d="M18.9,11.3h-2.7c.1-.8.2-1.7.2-2.5h3.1c0,.9-.3,1.7-.6,2.5Z"/>
      <path class="st0" d="M7.9,7.8h-3.1c0-.9.3-1.7.6-2.5h2.7c-.1.8-.2,1.6-.2,2.5Z"/>
      <path class="st0" d="M19.5,7.8h-3.1c0-.9,0-1.7-.2-2.5h2.7c.4.8.6,1.6.6,2.5Z"/>
      <path class="st0" d="M8.1,11.3h-2.7c-.4-.8-.6-1.6-.6-2.5h3.1c0,.9,0,1.6.2,2.5Z"/>
      <path class="st0" d="M8.3,4.4h-2.4c.9-1.3,2.1-2.4,3.7-3-.6.9-1,1.9-1.3,3Z"/>
      <path class="st0" d="M18.3,4.4h-2.4c-.3-1-.6-2-1.3-3,1.6.5,2.8,1.6,3.7,3Z"/>
      <path class="st0" d="M8.3,12.2c.2,1.1.7,2,1.3,3-1.5-.5-2.8-1.6-3.7-2.9h2.4Z"/>
      <path class="st0" d="M18.3,12.3c-.8,1.3-2.1,2.4-3.7,2.9.6-.9,1-1.9,1.2-3h2.4Z"/>
    </g>
  </g>
</svg>