<?xml version="1.0" encoding="UTF-8"?>
<svg id="svg4" xmlns="http://www.w3.org/2000/svg" version="1.1" xmlns:inkscape="http://www.inkscape.org/namespaces/inkscape" xmlns:sodipodi="http://sodipodi.sourceforge.net/DTD/sodipodi-0.dtd" xmlns:svg="http://www.w3.org/2000/svg" viewBox="0 0 46.7 24">
  <!-- Generator: Adobe Illustrator 30.2.1, SVG Export Plug-In . SVG Version: 2.1.1 Build 1)  -->
  <defs>
    <style>
      .st0 {
        fill: #e2e2e2;
      }
    </style>
  </defs>
  <sodipodi:namedview id="namedview6" bordercolor="#ffffff" borderopacity="1" inkscape:current-layer="svg4" inkscape:cx="-0.38461538" inkscape:cy="12.019231" inkscape:pagecheckerboard="1" inkscape:pageopacity="0" inkscape:pageshadow="0" inkscape:window-height="826" inkscape:window-maximized="1" inkscape:window-width="1600" inkscape:window-x="0" inkscape:window-y="0" inkscape:zoom="26" pagecolor="#505050" showgrid="false"/>
  <path class="st0" d="M38.3,8l7.5,4.2-7.3,4.4v-3.2h-18.2c0,.2.2.6.4.8,1,1.8,2.2,4,7.3,4.2v-2.2h6.3v6.3h-6.3v-2c-6.5,0-7.9-3-9.1-5.3-.4-.8-.8-1.6-1.4-1.8h-9.5c-.4,1.6-2,2.8-3.6,2.8s-3.8-1.6-3.8-3.8h0c0-2,1.6-3.8,3.8-3.8h0c1.6,0,3,1,3.6,2.4h5.9c.4-.8.8-1.4,1-2.2,1.2-3,2-4.7,8.7-4.9.4-1.6,2-2.8,3.6-2.8s3.8,1.6,3.8,3.8-1.6,3.8-3.8,3.8-3-1-3.6-2.6c-5.3,0-5.7,1.4-6.7,3.6,0,.4-.4.8-.6,1.4h22.4v-3.2h0l-.4.2Z"/>
</svg>