<?xml version="1.0" encoding="UTF-8"?>
<svg id="svg4" xmlns="http://www.w3.org/2000/svg" version="1.1" xmlns:inkscape="http://www.inkscape.org/namespaces/inkscape" xmlns:sodipodi="http://sodipodi.sourceforge.net/DTD/sodipodi-0.dtd" xmlns:svg="http://www.w3.org/2000/svg" viewBox="0 0 24 24">
  <!-- Generator: Adobe Illustrator 30.2.1, SVG Export Plug-In . SVG Version: 2.1.1 Build 1)  -->
  <defs>
    <style>
      .st0 {
        fill: #e2e2e2;
      }
    </style>
  </defs>
  <sodipodi:namedview id="namedview6" bordercolor="#ffffff" borderopacity="1" inkscape:current-layer="svg4" inkscape:cx="-0.38461538" inkscape:cy="12.019231" inkscape:pagecheckerboard="1" inkscape:pageopacity="0" inkscape:pageshadow="0" inkscape:window-height="826" inkscape:window-maximized="1" inkscape:window-width="1600" inkscape:window-x="0" inkscape:window-y="0" inkscape:zoom="26" pagecolor="#505050" showgrid="false"/>
  <path class="st0" d="M23.5,12.1l-3.7,4.2v-3h-9.8c0,.2-.1,4.7,2.5,4.9v-2.3h5.2v6h-5.2v-2.3c-3.3,0-3.8-5.1-3.9-6.4h-2.6c-.2,1.7-1.9,2.6-2.7,2.6-3.1,0-3.1-3.6-3.1-3.6,0-1.9.7-3.5,3.1-3.6h0c.8,0,1.9,0,2.7,2.3h1.6c0-.7.2-1.3.3-2.1.6-2.8,1.2-4.5,4.4-4.6.2-1.5,1.3-2.6,3-2.6s3.2,1.4,3.2,3.4-1.7,3.1-3.4,3.1-2.6-.9-2.9-2.4c-3.6.1-3.1,4.6-3.2,5.2h10.8v-3h0l3.6,4.2Z"/>
</svg>