<?xml version="1.0" encoding="UTF-8"?>
<svg id="svg4" xmlns="http://www.w3.org/2000/svg" version="1.1" xmlns:inkscape="http://www.inkscape.org/namespaces/inkscape" xmlns:sodipodi="http://sodipodi.sourceforge.net/DTD/sodipodi-0.dtd" xmlns:svg="http://www.w3.org/2000/svg" viewBox="0 0 24 24">
  <!-- Generator: Adobe Illustrator 30.2.1, SVG Export Plug-In . SVG Version: 2.1.1 Build 1)  -->
  <defs>
    <style>
      .st0 {
        fill: #e2e2e2;
      }
    </style>
  </defs>
  <sodipodi:namedview id="namedview6" bordercolor="#ffffff" borderopacity="1" inkscape:current-layer="svg4" inkscape:cx="-0.38461538" inkscape:cy="12.019231" inkscape:pagecheckerboard="1" inkscape:pageopacity="0" inkscape:pageshadow="0" inkscape:window-height="826" inkscape:window-maximized="1" inkscape:window-width="1600" inkscape:window-x="0" inkscape:window-y="0" inkscape:zoom="26" pagecolor="#505050" showgrid="false"/>
  <path class="st0" d="M23.8,12.1l-3.7,2.3v-1.7h-9.6c0,.1.1.3.2.4.5.9,1.1,2.1,3.8,2.2v-1.1h3.3v3.3h-3.3v-1c-3.4,0-4.1-1.6-4.7-2.8-.2-.4-.4-.8-.7-.9h-4.9c-.2.8-1,1.5-1.9,1.5s-2-.8-2-2h0c0-1,.8-2,2-2h0c.8,0,1.6.5,1.9,1.2h3.1c.2-.4.4-.7.5-1.1.6-1.6,1-2.4,4.5-2.6.2-.8,1-1.5,1.9-1.5s2,.8,2,2-.8,2-2,2-1.6-.5-1.9-1.4c-2.8,0-3,.7-3.5,1.9,0,.2-.2.4-.3.7h11.6v-1.7l3.7,2.3Z"/>
</svg>